<?xml version="1.0" encoding="UTF-8"?>
<!DOCTYPE svg PUBLIC "-//W3C//DTD SVG 1.1//EN" "http://www.w3.org/Graphics/SVG/1.1/DTD/svg11.dtd">
<svg xmlns="http://www.w3.org/2000/svg" version="1.1" width="512px" height="512px" style="shape-rendering:geometricPrecision; text-rendering:geometricPrecision; image-rendering:optimizeQuality; fill-rule:evenodd; clip-rule:evenodd" xmlns:xlink="http://www.w3.org/1999/xlink">
<g><path style="opacity:0.992" fill="#57d2a9" d="M 232.5,-0.5 C 247.833,-0.5 263.167,-0.5 278.5,-0.5C 368.144,10.3879 435.644,54.7213 481,132.5C 497.695,163.971 507.861,197.304 511.5,232.5C 511.5,247.833 511.5,263.167 511.5,278.5C 500.612,368.144 456.279,435.644 378.5,481C 347.029,497.695 313.696,507.861 278.5,511.5C 263.167,511.5 247.833,511.5 232.5,511.5C 142.856,500.612 75.3562,456.279 30,378.5C 13.3053,347.029 3.1386,313.696 -0.5,278.5C -0.5,263.167 -0.5,247.833 -0.5,232.5C 10.3875,142.857 54.7208,75.3573 132.5,30C 163.971,13.3053 197.304,3.1386 232.5,-0.5 Z"/></g>
<g><path style="opacity:1" fill="#fefefe" d="M 278.5,420.5 C 273.819,420.669 269.152,421.002 264.5,421.5C 254.815,421.578 245.148,421.245 235.5,420.5C 173.722,411.538 129.556,378.872 103,322.5C 75.4831,250.051 88.9831,186.551 143.5,132C 195.329,88.4704 253.329,78.1371 317.5,101C 378.646,128.073 413.479,174.907 422,241.5C 424.239,311.542 395.739,364.708 336.5,401C 318.173,410.609 298.839,417.109 278.5,420.5 Z"/></g>
<g><path style="opacity:1" fill="#5ad2aa" d="M 225.5,231.5 C 226.376,235.462 227.042,239.462 227.5,243.5C 220.879,244.06 214.545,243.393 208.5,241.5C 204.721,230.59 197.387,227.423 186.5,232C 183.02,234.297 181.02,237.464 180.5,241.5C 174.118,243.399 167.451,244.066 160.5,243.5C 161.431,227.059 169.764,216.225 185.5,211C 204.08,208.121 217.413,214.954 225.5,231.5 Z"/></g>
<g><path style="opacity:1" fill="#5ad2aa" d="M 351.5,243.5 C 345.167,243.5 338.833,243.5 332.5,243.5C 332.768,241.901 332.434,240.568 331.5,239.5C 327.269,231.357 320.603,228.523 311.5,231C 306.932,233.974 304.265,238.141 303.5,243.5C 297.167,243.5 290.833,243.5 284.5,243.5C 284.5,241.5 284.5,239.5 284.5,237.5C 290.341,217.41 303.674,208.577 324.5,211C 341.389,215.381 350.389,226.215 351.5,243.5 Z"/></g>
<g><path style="opacity:1" fill="#8de0c4" d="M 180.5,241.5 C 180.5,242.5 180.5,243.5 180.5,244.5C 173.646,244.824 166.979,244.491 160.5,243.5C 167.451,244.066 174.118,243.399 180.5,241.5 Z"/></g>
<g><path style="opacity:1" fill="#8bdfc3" d="M 225.5,231.5 C 227.876,235.405 228.876,239.739 228.5,244.5C 221.833,244.5 215.167,244.5 208.5,244.5C 208.5,243.5 208.5,242.5 208.5,241.5C 214.545,243.393 220.879,244.06 227.5,243.5C 227.042,239.462 226.376,235.462 225.5,231.5 Z"/></g>
<g><path style="opacity:1" fill="#93e2c7" d="M 284.5,237.5 C 284.5,239.5 284.5,241.5 284.5,243.5C 290.833,243.5 297.167,243.5 303.5,243.5C 297.021,244.491 290.354,244.824 283.5,244.5C 283.198,241.941 283.532,239.607 284.5,237.5 Z"/></g>
<g><path style="opacity:1" fill="#8fe1c5" d="M 331.5,239.5 C 332.434,240.568 332.768,241.901 332.5,243.5C 338.833,243.5 345.167,243.5 351.5,243.5C 345.021,244.491 338.354,244.824 331.5,244.5C 331.5,242.833 331.5,241.167 331.5,239.5 Z"/></g>
<g><path style="opacity:1" fill="#5ad2aa" d="M 248.5,349.5 C 255.321,350.655 262.321,350.821 269.5,350C 270.416,349.722 271.082,349.222 271.5,348.5C 297.699,343.453 318.532,330.12 334,308.5C 339.468,311.811 344.635,315.477 349.5,319.5C 325.976,352.765 293.643,369.431 252.5,369.5C 214.793,367.65 184.793,351.65 162.5,321.5C 166.929,317.112 171.929,313.446 177.5,310.5C 190.607,326.726 206.941,338.56 226.5,346C 233.748,347.814 241.081,348.98 248.5,349.5 Z"/></g>
<g><path style="opacity:1" fill="#8bdfc3" d="M 271.5,348.5 C 271.082,349.222 270.416,349.722 269.5,350C 262.321,350.821 255.321,350.655 248.5,349.5C 256.201,349.691 263.868,349.358 271.5,348.5 Z"/></g>
<g><path style="opacity:1" fill="#cbf1e4" d="M 235.5,420.5 C 245.148,421.245 254.815,421.578 264.5,421.5C 264.5,421.833 264.5,422.167 264.5,422.5C 256.826,422.666 249.159,422.5 241.5,422C 239.292,421.809 237.292,421.309 235.5,420.5 Z"/></g>
<g><path style="opacity:1" fill="#88dec1" d="M 278.5,420.5 C 274.081,421.972 269.414,422.638 264.5,422.5C 264.5,422.167 264.5,421.833 264.5,421.5C 269.152,421.002 273.819,420.669 278.5,420.5 Z"/></g>
</svg>
