<?xml version="1.0" encoding="UTF-8"?>
<!DOCTYPE svg PUBLIC "-//W3C//DTD SVG 1.1//EN" "http://www.w3.org/Graphics/SVG/1.1/DTD/svg11.dtd">
<svg xmlns="http://www.w3.org/2000/svg" version="1.1" width="512px" height="512px" style="shape-rendering:geometricPrecision; text-rendering:geometricPrecision; image-rendering:optimizeQuality; fill-rule:evenodd; clip-rule:evenodd" xmlns:xlink="http://www.w3.org/1999/xlink">
<g><path style="opacity:0.992" fill="#febc2d" d="M 232.5,-0.5 C 247.833,-0.5 263.167,-0.5 278.5,-0.5C 368.144,10.3879 435.644,54.7213 481,132.5C 497.695,163.971 507.861,197.304 511.5,232.5C 511.5,247.833 511.5,263.167 511.5,278.5C 500.612,368.144 456.279,435.644 378.5,481C 347.029,497.695 313.696,507.861 278.5,511.5C 263.167,511.5 247.833,511.5 232.5,511.5C 142.856,500.612 75.3562,456.279 30,378.5C 13.3053,347.029 3.1386,313.696 -0.5,278.5C -0.5,263.167 -0.5,247.833 -0.5,232.5C 10.3875,142.857 54.7208,75.3573 132.5,30C 163.971,13.3053 197.304,3.1386 232.5,-0.5 Z"/></g>
<g><path style="opacity:1" fill="#fffefe" d="M 291.5,91.5 C 293.515,92.9238 295.848,93.5905 298.5,93.5C 357.946,111.779 397.446,150.446 417,209.5C 418.706,215.405 419.873,221.405 420.5,227.5C 420.362,232.414 421.028,237.081 422.5,241.5C 425.495,302.66 403.162,352.16 355.5,390C 321.482,414.507 283.482,425.34 241.5,422.5C 237.081,421.028 232.414,420.362 227.5,420.5C 168.881,409.386 127.048,376.72 102,322.5C 91.2471,296.9 86.7471,270.234 88.5,242.5C 89.889,237.731 90.5557,232.731 90.5,227.5C 101.523,171.285 132.523,130.118 183.5,104C 218.081,88.1292 254.081,83.9626 291.5,91.5 Z"/></g>
<g><path style="opacity:1" fill="#ffd071" d="M 291.5,91.5 C 294.152,91.4095 296.485,92.0762 298.5,93.5C 295.848,93.5905 293.515,92.9238 291.5,91.5 Z"/></g>
<g><path style="opacity:1" fill="#febd31" d="M 204.5,183.5 C 204.785,198.536 204.451,213.536 203.5,228.5C 199.141,237.007 192.141,240.173 182.5,238C 177.011,235.532 173.511,231.365 172,225.5C 171.333,211.5 171.333,197.5 172,183.5C 176.168,174 183.335,170.166 193.5,172C 198.741,174.406 202.408,178.239 204.5,183.5 Z"/></g>
<g><path style="opacity:1" fill="#febd31" d="M 307.5,228.5 C 306.549,213.536 306.215,198.536 306.5,183.5C 312.091,171.203 320.758,168.369 332.5,175C 335.433,177.264 337.6,180.098 339,183.5C 339.833,198.178 339.666,212.845 338.5,227.5C 331.778,239.282 322.611,241.615 311,234.5C 309.579,232.595 308.412,230.595 307.5,228.5 Z"/></g>
<g><path style="opacity:1" fill="#fed06c" d="M 204.5,183.5 C 205.661,197.661 205.827,211.994 205,226.5C 204.722,227.416 204.222,228.082 203.5,228.5C 204.451,213.536 204.785,198.536 204.5,183.5 Z"/></g>
<g><path style="opacity:1" fill="#fecf6c" d="M 306.5,183.5 C 306.215,198.536 306.549,213.536 307.5,228.5C 306.778,228.082 306.278,227.416 306,226.5C 305.173,211.994 305.339,197.661 306.5,183.5 Z"/></g>
<g><path style="opacity:1" fill="#ffe5b1" d="M 420.5,227.5 C 421.972,231.919 422.638,236.586 422.5,241.5C 421.028,237.081 420.362,232.414 420.5,227.5 Z"/></g>
<g><path style="opacity:1" fill="#ffe9bd" d="M 90.5,227.5 C 90.5557,232.731 89.889,237.731 88.5,242.5C 88.4443,237.269 89.111,232.269 90.5,227.5 Z"/></g>
<g><path style="opacity:1" fill="#fece67" d="M 325.5,306.5 C 277.477,306.186 229.477,306.519 181.5,307.5C 181.918,306.778 182.584,306.278 183.5,306C 231.002,305.168 278.335,305.335 325.5,306.5 Z"/></g>
<g><path style="opacity:1" fill="#febc30" d="M 325.5,306.5 C 339.252,311.007 342.752,319.673 336,332.5C 333.617,335.273 330.783,337.439 327.5,339C 279.5,339.667 231.5,339.667 183.5,339C 172.006,333.525 168.84,325.025 174,313.5C 176.106,310.882 178.606,308.882 181.5,307.5C 229.477,306.519 277.477,306.186 325.5,306.5 Z"/></g>
<g><path style="opacity:1" fill="#ffe5b1" d="M 227.5,420.5 C 232.414,420.362 237.081,421.028 241.5,422.5C 236.586,422.638 231.919,421.972 227.5,420.5 Z"/></g>
</svg>