<?xml version="1.0" encoding="UTF-8"?>
<!DOCTYPE svg PUBLIC "-//W3C//DTD SVG 1.1//EN" "http://www.w3.org/Graphics/SVG/1.1/DTD/svg11.dtd">
<svg xmlns="http://www.w3.org/2000/svg" version="1.1" width="512px" height="512px" style="shape-rendering:geometricPrecision; text-rendering:geometricPrecision; image-rendering:optimizeQuality; fill-rule:evenodd; clip-rule:evenodd" xmlns:xlink="http://www.w3.org/1999/xlink">
<g><path style="opacity:0.992" fill="#f0142f" d="M 232.5,-0.5 C 247.833,-0.5 263.167,-0.5 278.5,-0.5C 368.144,10.3879 435.644,54.7213 481,132.5C 497.695,163.971 507.861,197.304 511.5,232.5C 511.5,247.833 511.5,263.167 511.5,278.5C 500.612,368.144 456.279,435.644 378.5,481C 347.029,497.695 313.696,507.861 278.5,511.5C 263.167,511.5 247.833,511.5 232.5,511.5C 142.856,500.612 75.3562,456.279 30,378.5C 13.3053,347.029 3.1386,313.696 -0.5,278.5C -0.5,263.167 -0.5,247.833 -0.5,232.5C 10.3875,142.857 54.7208,75.3573 132.5,30C 163.971,13.3053 197.304,3.1386 232.5,-0.5 Z"/></g>
<g><path style="opacity:1" fill="#fffefe" d="M 240.5,88.5 C 315.103,86.3917 370.27,117.725 406,182.5C 433.515,246.854 426.182,306.854 384,362.5C 336.157,414.759 277.657,432.593 208.5,416C 141.763,393.255 102.263,347.088 90,277.5C 83.6543,207.779 109.154,153.279 166.5,114C 189.364,99.9907 214.031,91.4907 240.5,88.5 Z"/></g>
<g><path style="opacity:1" fill="#f01c32" d="M 158.5,208.5 C 162.463,208.089 166.13,208.922 169.5,211C 176.34,229.257 188.673,234.59 206.5,227C 211.252,223.586 214.419,219.086 216,213.5C 222.451,206.69 228.451,207.023 234,214.5C 234.617,221.613 232.617,227.947 228,233.5C 213.107,250.2 195.274,254.366 174.5,246C 163.105,239.884 155.771,230.551 152.5,218C 153.514,214.164 155.514,210.998 158.5,208.5 Z"/></g>
<g><path style="opacity:1" fill="#f01c32" d="M 282.5,208.5 C 290.95,208.104 296.117,212.104 298,220.5C 306.212,230.803 316.379,233.303 328.5,228C 334.707,224.104 338.874,218.604 341,211.5C 345.633,207.675 350.467,207.509 355.5,211C 357.205,212.863 358.205,215.029 358.5,217.5C 351.517,240.621 335.85,251.454 311.5,250C 293.116,246.614 281.449,235.947 276.5,218C 276.71,213.638 278.71,210.471 282.5,208.5 Z"/></g>
<g><path style="opacity:1" fill="#f01b32" d="M 247.5,275.5 C 279.056,274.695 303.889,287.028 322,312.5C 325.933,318.837 324.766,324.003 318.5,328C 313.563,329.369 309.396,328.203 306,324.5C 294.298,305.393 277.131,295.726 254.5,295.5C 231.732,297.05 214.399,307.55 202.5,327C 191.21,330.378 186.376,326.211 188,314.5C 201.938,292.377 221.771,279.377 247.5,275.5 Z"/></g>
</svg>
